<?xml version="1.0" encoding="UTF-8" standalone="no"?>
<svg
   xmlns:dc="http://purl.org/dc/elements/1.1/"
   xmlns:cc="http://creativecommons.org/ns#"
   xmlns:rdf="http://www.w3.org/1999/02/22-rdf-syntax-ns#"
   xmlns:svg="http://www.w3.org/2000/svg"
   xmlns="http://www.w3.org/2000/svg"
   xmlns:sodipodi="http://sodipodi.sourceforge.net/DTD/sodipodi-0.dtd"
   xmlns:inkscape="http://www.inkscape.org/namespaces/inkscape"
   version="1.0"
   width="338.29999mm"
   height="190.49001mm"
   id="svg4566"
   sodipodi:docname="docToolchainLogo.svg"
   inkscape:version="0.92.2 (5c3e80d, 2017-08-06)">
  <metadata
     id="metadata4570">
    <rdf:RDF>
      <cc:Work
         rdf:about="">
        <dc:format>image/svg+xml</dc:format>
        <dc:type
           rdf:resource="http://purl.org/dc/dcmitype/StillImage" />
        <dc:title></dc:title>
      </cc:Work>
    </rdf:RDF>
  </metadata>
  <sodipodi:namedview
     pagecolor="#ffffff"
     bordercolor="#666666"
     borderopacity="1"
     objecttolerance="10"
     gridtolerance="10"
     guidetolerance="10"
     inkscape:pageopacity="0"
     inkscape:pageshadow="2"
     inkscape:window-width="1368"
     inkscape:window-height="859"
     id="namedview4568"
     showgrid="false"
     inkscape:zoom="1.5744678"
     inkscape:cx="416.94363"
     inkscape:cy="378.84175"
     inkscape:window-x="-8"
     inkscape:window-y="-8"
     inkscape:window-maximized="1"
     inkscape:current-layer="svg4566" />
  <defs
     id="defs4516">
    <pattern
       id="EMFhbasepattern"
       patternUnits="userSpaceOnUse"
       width="6"
       height="6"
       x="0"
       y="0" />
  </defs>
  <path
     style="fill:#deebf7;fill-rule:evenodd;fill-opacity:1;stroke:none;"
     d="  M 262.05087,157.36648   C 262.05087,144.05101 272.82721,133.27467 286.14268,133.27467   L 451.24653,133.27467   C 472.95914,167.66298 503.72868,196.83306 526.52093,209.74866   L 526.52093,487.01436   C 526.52093,500.30984 515.74459,511.10617 502.42912,511.10617   L 286.14268,511.10617   C 272.82721,511.10617 262.05087,500.30984 262.05087,487.01436   L 262.05087,157.36648   z "
     id="path4520" />
  <path
     style="fill:none;stroke:#000000;stroke-width:4.6584158px;stroke-linecap:butt;stroke-linejoin:miter;stroke-miterlimit:8;stroke-dasharray:none;stroke-opacity:1;"
     d="  M 262.05087,157.36648   C 262.05087,144.05101 272.82721,133.27467 286.14268,133.27467   L 451.24653,133.27467   C 472.95914,167.66298 503.72868,196.83306 526.52093,209.74866   L 526.52093,487.01436   C 526.52093,500.30984 515.74459,511.10617 502.42912,511.10617   L 286.14268,511.10617   C 272.82721,511.10617 262.05087,500.30984 262.05087,487.01436   L 262.05087,157.36648   z "
     id="path4522" />
  <path
     style="fill:none;stroke:#5b9bd5;stroke-width:0.65977561px;stroke-linecap:butt;stroke-linejoin:miter;stroke-miterlimit:8;stroke-dasharray:none;stroke-opacity:1;"
     d="  M 450.96662,133.27467   L 526.52093,208.82898  "
     id="path4524" />
  <path
     style="fill:#f2f2f2;fill-rule:evenodd;fill-opacity:1;stroke:none;"
     d="  M 451.36649,133.23469   C 470.18009,133.35464 526.56091,189.69548 526.52093,208.82898   L 474.35867,208.82898   C 461.44306,208.82898 450.96662,198.37253 450.96662,185.47692   L 451.36649,133.23469   z "
     id="path4526" />
  <path
     style="fill:none;stroke:#000000;stroke-width:4.6584158px;stroke-linecap:butt;stroke-linejoin:miter;stroke-miterlimit:8;stroke-dasharray:none;stroke-opacity:1;"
     d="  M 451.36649,133.23469   C 470.18009,133.35464 526.56091,189.69548 526.52093,208.82898   L 474.35867,208.82898   C 461.44306,208.82898 450.96662,198.37253 450.96662,185.47692   L 451.36649,133.23469   z "
     id="path4528" />
  <path
     style="fill:none;stroke:#a6a6a6;stroke-width:4.6584158px;stroke-linecap:butt;stroke-linejoin:miter;stroke-miterlimit:8;stroke-dasharray:none;stroke-opacity:1;"
     d="  M 384.62918,171.86155   L 426.17505,171.86155  "
     id="path4530" />
  <path
     style="fill:none;stroke:#a6a6a6;stroke-width:4.6584158px;stroke-linecap:butt;stroke-linejoin:miter;stroke-miterlimit:8;stroke-dasharray:none;stroke-opacity:1;"
     d="  M 384.62918,209.6487   L 427.67454,209.6487  "
     id="path4532" />
  <path
     style="fill:none;stroke:#a6a6a6;stroke-width:4.6584158px;stroke-linecap:butt;stroke-linejoin:miter;stroke-miterlimit:8;stroke-dasharray:none;stroke-opacity:1;"
     d="  M 299.83802,246.61612   L 488.6538,246.61612  "
     id="path4534" />
  <path
     style="fill:none;stroke:#a6a6a6;stroke-width:4.6584158px;stroke-linecap:butt;stroke-linejoin:miter;stroke-miterlimit:8;stroke-dasharray:none;stroke-opacity:1;"
     d="  M 299.83802,284.40327   L 488.6538,284.40327  "
     id="path4536" />
  <path
     style="fill:none;stroke:#a6a6a6;stroke-width:4.6584158px;stroke-linecap:butt;stroke-linejoin:miter;stroke-miterlimit:8;stroke-dasharray:none;stroke-opacity:1;"
     d="  M 299.83802,322.19042   L 488.6538,322.19042  "
     id="path4538" />
  <path
     style="fill:none;stroke:#a6a6a6;stroke-width:4.6584158px;stroke-linecap:butt;stroke-linejoin:miter;stroke-miterlimit:8;stroke-dasharray:none;stroke-opacity:1;"
     d="  M 299.83802,359.95758   L 488.6538,359.95758  "
     id="path4540" />
  <path
     style="fill:none;stroke:#a6a6a6;stroke-width:4.6584158px;stroke-linecap:butt;stroke-linejoin:miter;stroke-miterlimit:8;stroke-dasharray:none;stroke-opacity:1;"
     d="  M 299.83802,397.74472   L 438.11099,397.74472  "
     id="path4542" />
  <path
     style="fill:none;stroke:#a6a6a6;stroke-width:5.3381844px;stroke-linecap:butt;stroke-linejoin:miter;stroke-miterlimit:8;stroke-dasharray:none;stroke-opacity:1;"
     d="  M 299.83802,435.53187   L 413.17947,435.53187  "
     id="path4544" />
  <path
     style="fill:none;stroke:#a6a6a6;stroke-width:4.6584158px;stroke-linecap:butt;stroke-linejoin:miter;stroke-miterlimit:8;stroke-dasharray:none;stroke-opacity:1;"
     d="  M 299.83802,473.31902   L 375.39233,473.31902  "
     id="path4546" />
  <path
     style="fill:#000000;fill-rule:evenodd;fill-opacity:1;stroke:none;"
     d="  M 494.8517,402.32317   C 486.29461,410.88026 486.71446,425.1554 495.77138,434.23231   C 504.8283,443.28923 519.12344,443.70909 527.68053,435.152   L 543.13528,419.67726   C 551.69236,411.12017 551.2925,396.82504 542.23558,387.76812   C 533.15867,378.7112 518.88352,378.29134 510.32643,386.84843   z  M 478.43728,385.92874   L 493.93201,370.43401   C 511.0262,353.33983 539.57649,354.15955 557.71032,372.27339   C 575.82416,390.38723 576.64388,418.95751 559.5297,436.0517   L 544.05496,451.54643   C 526.94078,468.64061 498.39049,467.82089 480.27665,449.70705   C 462.16281,431.59321 461.34309,403.02293 478.43728,385.92874   z "
     id="path4548" />
  <path
     style="fill:none;stroke:#ffffff;stroke-width:4.6584158px;stroke-linecap:butt;stroke-linejoin:miter;stroke-miterlimit:8;stroke-dasharray:none;stroke-opacity:1;"
     d="  M 494.8517,402.32317   C 486.29461,410.88026 486.71446,425.1554 495.77138,434.23231   C 504.8283,443.28923 519.12344,443.70909 527.68053,435.152   L 543.13528,419.67726   C 551.69236,411.12017 551.2925,396.82504 542.23558,387.76812   C 533.15867,378.7112 518.88352,378.29134 510.32643,386.84843   z  M 478.43728,385.92874   L 493.93201,370.43401   C 511.0262,353.33983 539.57649,354.15955 557.71032,372.27339   C 575.82416,390.38723 576.64388,418.95751 559.5297,436.0517   L 544.05496,451.54643   C 526.94078,468.64061 498.39049,467.82089 480.27665,449.70705   C 462.16281,431.59321 461.34309,403.02293 478.43728,385.92874   z "
     id="path4550" />
  <path
     style="fill:#000000;fill-rule:evenodd;fill-opacity:1;stroke:none;"
     d="  M 410.32045,487.15431   C 401.76336,495.69141 402.24319,510.04653 411.40008,519.20341   C 420.53697,528.34031 434.89209,528.82014 443.44918,520.26305   L 458.90392,504.78832   C 467.46101,496.23123 466.98118,481.87611 457.84428,472.73922   C 448.70739,463.60232 434.35227,463.12249 425.79518,471.67958   z  M 393.76608,470.59995   L 409.26081,455.12521   C 426.35499,438.01103 455.04524,438.9707 473.31902,457.24449   C 491.6128,475.51827 492.55248,504.20851 475.45829,521.32269   L 459.96356,536.79743   C 442.86938,553.91161 414.17913,552.95194 395.90535,534.67815   C 377.61157,516.38437 376.67189,487.71412 393.76608,470.59995   z "
     id="path4552" />
  <path
     style="fill:none;stroke:#ffffff;stroke-width:4.6584158px;stroke-linecap:butt;stroke-linejoin:miter;stroke-miterlimit:8;stroke-dasharray:none;stroke-opacity:1;"
     d="  M 410.32045,487.15431   C 401.76336,495.69141 402.24319,510.04653 411.40008,519.20341   C 420.53697,528.34031 434.89209,528.82014 443.44918,520.26305   L 458.90392,504.78832   C 467.46101,496.23123 466.98118,481.87611 457.84428,472.73922   C 448.70739,463.60232 434.35227,463.12249 425.79518,471.67958   z  M 393.76608,470.59995   L 409.26081,455.12521   C 426.35499,438.01103 455.04524,438.9707 473.31902,457.24449   C 491.6128,475.51827 492.55248,504.20851 475.45829,521.32269   L 459.96356,536.79743   C 442.86938,553.91161 414.17913,552.95194 395.90535,534.67815   C 377.61157,516.38437 376.67189,487.71412 393.76608,470.59995   z "
     id="path4554" />
  <path
     style="fill:#000000;fill-rule:evenodd;fill-opacity:1;stroke:none;"
     d="  M 439.37057,491.79274   C 434.83211,487.25428 434.83211,479.89678 439.37057,475.37832   L 500.36982,414.35907   C 504.90828,409.84061 512.26577,409.84061 516.80423,414.35907   L 516.80423,414.35907   C 521.32269,418.89753 521.32269,426.25503 516.80423,430.79348   L 455.78498,491.79274   C 451.24653,496.33119 443.90902,496.33119 439.37057,491.79274   z "
     id="path4556" />
  <path
     style="fill:none;stroke:#ffffff;stroke-width:4.6584158px;stroke-linecap:butt;stroke-linejoin:miter;stroke-miterlimit:8;stroke-dasharray:none;stroke-opacity:1;"
     d="  M 439.37057,491.79274   C 434.83211,487.25428 434.83211,479.89678 439.37057,475.37832   L 500.36982,414.35907   C 504.90828,409.84061 512.26577,409.84061 516.80423,414.35907   L 516.80423,414.35907   C 521.32269,418.89753 521.32269,426.25503 516.80423,430.79348   L 455.78498,491.79274   C 451.24653,496.33119 443.90902,496.33119 439.37057,491.79274   z "
     id="path4558" />
  <text
     xml:space="preserve"
     style="font-size:88.000000px;font-style:normal;font-variant:normal;font-weight:400;font-stretch:Normal;line-height:125.000000%;letter-spacing:0px;word-spacing:0px;fill:#000000;fill-opacity:1;stroke:none;font-family:Arial;text-align:start;text-anchor:start;"
     transform="matrix(1.000000,-0.000000,0.000000,1.000000,269.808451,223.339782)"
     x="0.000000"
     y="0.000000"
     id="text4564"><tspan
       sodipodi:role="line"
       x="0.000000"
       y="0.000000"
       id="tspan4562"><tspan
         dx="0.000000"
         dy="0.000000"
         style="fill:#000000;font-size:88.000000px;font-style:normal;font-variant:normal;font-weight:400;font-stretch:Normal;font-family:Arial;"
         id="tspan4560">42</tspan></tspan></text>
</svg>
