<?xml version="1.0" encoding="UTF-8" standalone="no"?><svg xmlns="http://www.w3.org/2000/svg" xmlns:xlink="http://www.w3.org/1999/xlink" contentScriptType="application/ecmascript" contentStyleType="text/css" height="302px" preserveAspectRatio="none" style="width:651px;height:302px;" version="1.1" viewBox="0 0 651 302" width="651px" zoomAndPan="magnify"><defs><filter height="300%" id="f13a2c6yc93wgj" width="300%" x="-1" y="-1"><feGaussianBlur result="blurOut" stdDeviation="2.0"/><feColorMatrix in="blurOut" result="blurOut2" type="matrix" values="0 0 0 0 0 0 0 0 0 0 0 0 0 0 0 0 0 0 .4 0"/><feOffset dx="4.0" dy="4.0" in="blurOut2" result="blurOut3"/><feBlend in="SourceGraphic" in2="blurOut3" mode="normal"/></filter></defs><g><!--cluster repo1.git--><rect fill="#FFFFFF" filter="url(#f13a2c6yc93wgj)" height="242" style="stroke: #000000; stroke-width: 1.5;" width="190" x="14" y="16"/><polygon fill="#FFFFFF" points="187,21,187,35,199,35,199,27,193,21,187,21" style="stroke: #000000; stroke-width: 1.5;"/><line style="stroke: #000000; stroke-width: 1.5;" x1="193" x2="193" y1="21" y2="27"/><line style="stroke: #000000; stroke-width: 1.5;" x1="199" x2="193" y1="27" y2="27"/><text fill="#000000" font-family="sans-serif" font-size="14" font-weight="bold" lengthAdjust="spacingAndGlyphs" textLength="64" x="77" y="31.3369">repo1.git</text><!--cluster component1--><polygon fill="#FFFFFF" filter="url(#f13a2c6yc93wgj)" points="22,43,117,43,124,65.29,196,65.29,196,250,22,250,22,43" style="stroke: #000000; stroke-width: 1.5;"/><line style="stroke: #000000; stroke-width: 1.5;" x1="22" x2="124" y1="65.29" y2="65.29"/><text fill="#000000" font-family="sans-serif" font-size="14" font-weight="bold" lengthAdjust="spacingAndGlyphs" textLength="89" x="26" y="58.3369">component1</text><!--cluster repo2.git--><rect fill="#FFFFFF" filter="url(#f13a2c6yc93wgj)" height="242" style="stroke: #000000; stroke-width: 1.5;" width="252" x="212" y="16"/><polygon fill="#FFFFFF" points="447,21,447,35,459,35,459,27,453,21,447,21" style="stroke: #000000; stroke-width: 1.5;"/><line style="stroke: #000000; stroke-width: 1.5;" x1="453" x2="453" y1="21" y2="27"/><line style="stroke: #000000; stroke-width: 1.5;" x1="459" x2="453" y1="27" y2="27"/><text fill="#000000" font-family="sans-serif" font-size="14" font-weight="bold" lengthAdjust="spacingAndGlyphs" textLength="64" x="306" y="31.3369">repo2.git</text><!--cluster component2--><polygon fill="#FFFFFF" filter="url(#f13a2c6yc93wgj)" points="220,43,315,43,322,65.29,456,65.29,456,250,220,250,220,43" style="stroke: #000000; stroke-width: 1.5;"/><line style="stroke: #000000; stroke-width: 1.5;" x1="220" x2="322" y1="65.29" y2="65.29"/><text fill="#000000" font-family="sans-serif" font-size="14" font-weight="bold" lengthAdjust="spacingAndGlyphs" textLength="89" x="224" y="58.3369">component2</text><!--cluster repo3.git--><rect fill="#FFFFFF" filter="url(#f13a2c6yc93wgj)" height="126" style="stroke: #000000; stroke-width: 1.5;" width="162" x="472" y="16"/><polygon fill="#FFFFFF" points="617,21,617,35,629,35,629,27,623,21,617,21" style="stroke: #000000; stroke-width: 1.5;"/><line style="stroke: #000000; stroke-width: 1.5;" x1="623" x2="623" y1="21" y2="27"/><line style="stroke: #000000; stroke-width: 1.5;" x1="629" x2="623" y1="27" y2="27"/><text fill="#000000" font-family="sans-serif" font-size="14" font-weight="bold" lengthAdjust="spacingAndGlyphs" textLength="64" x="521" y="31.3369">repo3.git</text><!--cluster component3--><polygon fill="#FFFFFF" filter="url(#f13a2c6yc93wgj)" points="480,43,575,43,582,65.29,626,65.29,626,134,480,134,480,43" style="stroke: #000000; stroke-width: 1.5;"/><line style="stroke: #000000; stroke-width: 1.5;" x1="480" x2="582" y1="65.29" y2="65.29"/><text fill="#000000" font-family="sans-serif" font-size="14" font-weight="bold" lengthAdjust="spacingAndGlyphs" textLength="89" x="484" y="58.3369">component3</text><!--entity rm1--><polygon fill="#F8F8F8" filter="url(#f13a2c6yc93wgj)" points="44,70,78,70,85,92.29,174,92.29,174,125.5801,44,125.5801,44,70" style="stroke: #000000; stroke-width: 1.5;"/><line style="stroke: #000000; stroke-width: 1.5;" x1="44" x2="85" y1="92.29" y2="92.29"/><text fill="#000000" font-family="sans-serif" font-size="14" lengthAdjust="spacingAndGlyphs" textLength="28" x="48" y="86.3027">rm1</text><text fill="#000000" font-family="sans-serif" font-size="14" lengthAdjust="spacingAndGlyphs" textLength="100" x="54" y="112.5928">ROOT-module</text><!--entity am1--><polygon fill="#F8F8F8" filter="url(#f13a2c6yc93wgj)" points="29.5,186,65.5,186,72.5,208.29,188.5,208.29,188.5,241.5801,29.5,241.5801,29.5,186" style="stroke: #000000; stroke-width: 1.5;"/><line style="stroke: #000000; stroke-width: 1.5;" x1="29.5" x2="72.5" y1="208.29" y2="208.29"/><text fill="#000000" font-family="sans-serif" font-size="14" lengthAdjust="spacingAndGlyphs" textLength="30" x="33.5" y="202.3027">am1</text><text fill="#000000" font-family="sans-serif" font-size="14" lengthAdjust="spacingAndGlyphs" textLength="129" x="39.5" y="228.5928">additional-module</text><!--entity rm2--><polygon fill="#F8F8F8" filter="url(#f13a2c6yc93wgj)" points="273,70,307,70,314,92.29,403,92.29,403,125.5801,273,125.5801,273,70" style="stroke: #000000; stroke-width: 1.5;"/><line style="stroke: #000000; stroke-width: 1.5;" x1="273" x2="314" y1="92.29" y2="92.29"/><text fill="#000000" font-family="sans-serif" font-size="14" lengthAdjust="spacingAndGlyphs" textLength="28" x="277" y="86.3027">rm2</text><text fill="#000000" font-family="sans-serif" font-size="14" lengthAdjust="spacingAndGlyphs" textLength="100" x="283" y="112.5928">ROOT-module</text><!--entity am2--><polygon fill="#F8F8F8" filter="url(#f13a2c6yc93wgj)" points="227.5,186,263.5,186,270.5,208.29,448.5,208.29,448.5,241.5801,227.5,241.5801,227.5,186" style="stroke: #000000; stroke-width: 1.5;"/><line style="stroke: #000000; stroke-width: 1.5;" x1="227.5" x2="270.5" y1="208.29" y2="208.29"/><text fill="#000000" font-family="sans-serif" font-size="14" lengthAdjust="spacingAndGlyphs" textLength="30" x="231.5" y="202.3027">am2</text><text fill="#000000" font-family="sans-serif" font-size="14" lengthAdjust="spacingAndGlyphs" textLength="191" x="237.5" y="228.5928">another-additional-module</text><!--entity rm3--><polygon fill="#F8F8F8" filter="url(#f13a2c6yc93wgj)" points="488,70,522,70,529,92.29,618,92.29,618,125.5801,488,125.5801,488,70" style="stroke: #000000; stroke-width: 1.5;"/><line style="stroke: #000000; stroke-width: 1.5;" x1="488" x2="529" y1="92.29" y2="92.29"/><text fill="#000000" font-family="sans-serif" font-size="14" lengthAdjust="spacingAndGlyphs" textLength="28" x="492" y="86.3027">rm3</text><text fill="#000000" font-family="sans-serif" font-size="14" lengthAdjust="spacingAndGlyphs" textLength="100" x="498" y="112.5928">ROOT-module</text><!--link rm1 to am1--><!--link rm2 to am2--><text fill="#000000" font-family="sans-serif" font-size="14" lengthAdjust="spacingAndGlyphs" textLength="274" x="193" y="289.3027">Figure1: Antora components &amp; modules</text><!--
@startuml
caption Figure1: Antora components & modules
skinparam monochrome true
artifact repo1.git {
  package component1 {
    folder "ROOT-module" as rm1
    folder "additional-module" as am1
  }
  rm1 -[hidden]down- am1
}
artifact repo2.git {
  package component2 {
    folder "ROOT-module" as rm2
    folder "another-additional-module" as am2
  }
  rm2 -[hidden]down- am2
}
artifact repo3.git {
  package component3 {
    folder "ROOT-module" as rm3
  }
}
@enduml

PlantUML version 1.2018.05(Sat May 05 20:00:17 GMT 2018)
(GPL source distribution)
Java Runtime: Java(TM) SE Runtime Environment
JVM: Java HotSpot(TM) 64-Bit Server VM
Java Version: 1.8.0_161-b12
Operating System: Linux
OS Version: 4.9.125-linuxkit
Default Encoding: ANSI_X3.4-1968
Language: en
Country: US
--></g></svg>