<?xml version="1.0" encoding="UTF-8" standalone="no"?><svg xmlns="http://www.w3.org/2000/svg" xmlns:xlink="http://www.w3.org/1999/xlink" contentScriptType="application/ecmascript" contentStyleType="text/css" height="404.25px" preserveAspectRatio="none" style="width:1415px;height:404px;" version="1.1" viewBox="0 0 1415 404" width="1415.75px" zoomAndPan="magnify"><defs><filter height="300%" id="f9eobcw4rjnxa" width="300%" x="-1" y="-1"><feGaussianBlur result="blurOut" stdDeviation="3.5"/><feColorMatrix in="blurOut" result="blurOut2" type="matrix" values="0 0 0 0 0 0 0 0 0 0 0 0 0 0 0 0 0 0 .4 0"/><feOffset dx="7.0" dy="7.0" in="blurOut2" result="blurOut3"/><feBlend in="SourceGraphic" in2="blurOut3" mode="normal"/></filter></defs><g><rect fill="#FEFECE" filter="url(#f9eobcw4rjnxa)" height="61.4141" rx="21.875" ry="21.875" style="stroke: #A80036; stroke-width: 2.625;" width="157.5" x="441" y="179.6211"/><text fill="#000000" font-family="sans-serif" font-size="21" font-weight="bold" lengthAdjust="spacingAndGlyphs" textLength="122.5" x="458.5" y="218.9209">myThoughts</text><rect fill="#FEFECE" filter="url(#f9eobcw4rjnxa)" height="61.4141" rx="21.875" ry="21.875" style="stroke: #A80036; stroke-width: 2.625;" width="131.25" x="686" y="35"/><text fill="#000000" font-family="sans-serif" font-size="21" lengthAdjust="spacingAndGlyphs" textLength="96.25" x="703.5" y="74.2998">Thought 1</text><text fill="#000000" font-family="sans-serif" font-size="21" lengthAdjust="spacingAndGlyphs" textLength="108.5" x="910" y="59.3428">Thought 1.1</text><path d="M817.25,65.707 L834.75,65.707 C861,65.707 861,50.75 887.25,50.75 L904.75,50.75 " fill="none" style="stroke: #A80036; stroke-width: 1.75;"/><text fill="#000000" font-family="sans-serif" font-size="21" lengthAdjust="spacingAndGlyphs" textLength="108.5" x="910" y="89.2568">Thought 1.2</text><path d="M817.25,65.707 L834.75,65.707 C861,65.707 861,80.6641 887.25,80.6641 L904.75,80.6641 " fill="none" style="stroke: #A80036; stroke-width: 1.75;"/><path d="M598.5,210.3281 L616,210.3281 C642.25,210.3281 642.25,65.707 668.5,65.707 L686,65.707 " fill="none" style="stroke: #A80036; stroke-width: 1.75;"/><rect fill="#FEFECE" filter="url(#f9eobcw4rjnxa)" height="61.4141" rx="21.875" ry="21.875" style="stroke: #A80036; stroke-width: 2.625;" width="131.25" x="686" y="131.4141"/><text fill="#000000" font-family="sans-serif" font-size="21" lengthAdjust="spacingAndGlyphs" textLength="96.25" x="703.5" y="170.7139">Thought 2</text><path d="M598.5,210.3281 L616,210.3281 C642.25,210.3281 642.25,162.1211 668.5,162.1211 L686,162.1211 " fill="none" style="stroke: #A80036; stroke-width: 1.75;"/><rect fill="#FEFECE" filter="url(#f9eobcw4rjnxa)" height="61.4141" rx="21.875" ry="21.875" style="stroke: #A80036; stroke-width: 2.625;" width="131.25" x="686" y="227.8281"/><text fill="#000000" font-family="sans-serif" font-size="21" lengthAdjust="spacingAndGlyphs" textLength="96.25" x="703.5" y="267.1279">Thought 3</text><path d="M598.5,210.3281 L616,210.3281 C642.25,210.3281 642.25,258.5352 668.5,258.5352 L686,258.5352 " fill="none" style="stroke: #A80036; stroke-width: 1.75;"/><rect fill="#FEFECE" filter="url(#f9eobcw4rjnxa)" height="61.4141" rx="21.875" ry="21.875" style="stroke: #A80036; stroke-width: 2.625;" width="131.25" x="686" y="324.2422"/><text fill="#000000" font-family="sans-serif" font-size="21" lengthAdjust="spacingAndGlyphs" textLength="96.25" x="703.5" y="363.542">Thought 4</text><rect fill="#FEFECE" filter="url(#f9eobcw4rjnxa)" height="61.4141" rx="21.875" ry="21.875" style="stroke: #A80036; stroke-width: 2.625;" width="190.75" x="904.75" y="324.2422"/><text fill="#000000" font-family="sans-serif" font-size="21" lengthAdjust="spacingAndGlyphs" textLength="155.75" x="922.25" y="363.542">another big Idea</text><text fill="#000000" font-family="sans-serif" font-size="21" lengthAdjust="spacingAndGlyphs" textLength="206.5" x="1188.25" y="363.542">Details of my big idea</text><path d="M1095.5,354.9492 L1113,354.9492 C1139.25,354.9492 1139.25,354.9492 1165.5,354.9492 L1183,354.9492 " fill="none" style="stroke: #A80036; stroke-width: 1.75;"/><path d="M817.25,354.9492 L834.75,354.9492 C861,354.9492 861,354.9492 887.25,354.9492 L904.75,354.9492 " fill="none" style="stroke: #A80036; stroke-width: 1.75;"/><path d="M598.5,210.3281 L616,210.3281 C642.25,210.3281 642.25,354.9492 668.5,354.9492 L686,354.9492 " fill="none" style="stroke: #A80036; stroke-width: 1.75;"/><rect fill="#FEFECE" filter="url(#f9eobcw4rjnxa)" height="61.4141" rx="21.875" ry="21.875" style="stroke: #A80036; stroke-width: 2.625;" width="131.25" x="222.25" y="83.207"/><text fill="#000000" font-family="sans-serif" font-size="21" lengthAdjust="spacingAndGlyphs" textLength="96.25" x="239.75" y="122.5068">Thought A</text><path d="M441,210.3281 L423.5,210.3281 C397.25,210.3281 397.25,113.9141 371,113.9141 L353.5,113.9141 " fill="none" style="stroke: #A80036; stroke-width: 1.75;"/><rect fill="#FEFECE" filter="url(#f9eobcw4rjnxa)" height="61.4141" rx="21.875" ry="21.875" style="stroke: #A80036; stroke-width: 2.625;" width="133" x="220.5" y="179.6211"/><text fill="#000000" font-family="sans-serif" font-size="21" lengthAdjust="spacingAndGlyphs" textLength="98" x="238" y="218.9209">Thought B</text><text fill="#000000" font-family="sans-serif" font-size="21" lengthAdjust="spacingAndGlyphs" textLength="110.25" x="17.5" y="189.0068">Thought B.a</text><path d="M220.5,210.3281 L203,210.3281 C176.75,210.3281 176.75,180.4141 150.5,180.4141 L133,180.4141 " fill="none" style="stroke: #A80036; stroke-width: 1.75;"/><text fill="#000000" font-family="sans-serif" font-size="21" lengthAdjust="spacingAndGlyphs" textLength="110.25" x="17.5" y="218.9209">Thought B.b</text><path d="M220.5,210.3281 L203,210.3281 C176.75,210.3281 176.75,210.3281 150.5,210.3281 L133,210.3281 " fill="none" style="stroke: #A80036; stroke-width: 1.75;"/><text fill="#000000" font-family="sans-serif" font-size="21" lengthAdjust="spacingAndGlyphs" textLength="108.5" x="19.25" y="248.835">Thought B.c</text><path d="M220.5,210.3281 L203,210.3281 C176.75,210.3281 176.75,240.2422 150.5,240.2422 L133,240.2422 " fill="none" style="stroke: #A80036; stroke-width: 1.75;"/><path d="M441,210.3281 L423.5,210.3281 C397.25,210.3281 397.25,210.3281 371,210.3281 L353.5,210.3281 " fill="none" style="stroke: #A80036; stroke-width: 1.75;"/><rect fill="#FEFECE" filter="url(#f9eobcw4rjnxa)" height="61.4141" rx="21.875" ry="21.875" style="stroke: #A80036; stroke-width: 2.625;" width="134.75" x="218.75" y="276.0352"/><text fill="#000000" font-family="sans-serif" font-size="21" lengthAdjust="spacingAndGlyphs" textLength="99.75" x="236.25" y="315.335">Thought C</text><path d="M441,210.3281 L423.5,210.3281 C397.25,210.3281 397.25,306.7422 371,306.7422 L353.5,306.7422 " fill="none" style="stroke: #A80036; stroke-width: 1.75;"/><!--
@startmindmap

+ **myThoughts**
++ Thought 1
+++_ Thought 1.1
+++_ Thought 1.2
++ Thought 2
++ Thought 3
++ Thought 4
+++ another big Idea
++++_ Details of my big idea

- - Thought A
- - Thought B
- - -_ Thought B.a
- - -_ Thought B.b
- - -_ Thought B.c
- - Thought C

@endmindmap

PlantUML version 1.2019.08(Sat Jul 13 21:25:14 CEST 2019)
(GPL source distribution)
Java Runtime: OpenJDK Runtime Environment
JVM: OpenJDK 64-Bit Server VM
Java Version: 1.8.0_202-release-1483-b58
Operating System: Windows 10
OS Version: 10.0
Default Encoding: Cp1252
Language: de
Country: DE
--></g></svg>