<?xml version="1.0" encoding="UTF-8" standalone="no"?><svg xmlns="http://www.w3.org/2000/svg" xmlns:xlink="http://www.w3.org/1999/xlink" contentScriptType="application/ecmascript" contentStyleType="text/css" height="101px" preserveAspectRatio="none" style="width:229px;height:101px;" version="1.1" viewBox="0 0 229 101" width="229px" zoomAndPan="magnify"><defs><filter height="300%" id="f1o2jeqti6zho4" width="300%" x="-1" y="-1"><feGaussianBlur result="blurOut" stdDeviation="2.0"/><feColorMatrix in="blurOut" result="blurOut2" type="matrix" values="0 0 0 0 0 0 0 0 0 0 0 0 0 0 0 0 0 0 .4 0"/><feOffset dx="4.0" dy="4.0" in="blurOut2" result="blurOut3"/><feBlend in="SourceGraphic" in2="blurOut3" mode="normal"/></filter></defs><g><!--entity client--><ellipse cx="199" cy="18" fill="#FEFECE" filter="url(#f1o2jeqti6zho4)" rx="8" ry="8" style="stroke: #A80036; stroke-width: 2.0;"/><path d="M199,26 L199,53 M186,34 L212,34 M199,53 L186,68 M199,53 L212,68 " fill="none" filter="url(#f1o2jeqti6zho4)" style="stroke: #A80036; stroke-width: 2.0;"/><text fill="#000000" font-family="sans-serif" font-size="14" lengthAdjust="spacingAndGlyphs" textLength="37" x="180.5" y="88.3027">client</text><!--entity app--><polygon fill="#FEFECE" filter="url(#f1o2jeqti6zho4)" points="79,36.5,89,26.5,145,26.5,145,62.79,135,72.79,79,72.79,79,36.5" style="stroke: #000000; stroke-width: 1.5;"/><line style="stroke: #000000; stroke-width: 1.5;" x1="135" x2="144" y1="36.5" y2="27.5"/><line style="stroke: #000000; stroke-width: 1.5;" x1="79" x2="135" y1="36.5" y2="36.5"/><line style="stroke: #000000; stroke-width: 1.5;" x1="135" x2="135" y1="36.5" y2="72.79"/><text fill="#000000" font-family="sans-serif" font-size="14" lengthAdjust="spacingAndGlyphs" textLength="26" x="94" y="59.8027">app</text><!--entity db--><path d="M6,37 C6,27 25,27 25,27 C25,27 44,27 44,37 L44,62.29 C44,72.29 25,72.29 25,72.29 C25,72.29 6,72.29 6,62.29 L6,37 " fill="#FEFECE" filter="url(#f1o2jeqti6zho4)" style="stroke: #000000; stroke-width: 1.5;"/><path d="M6,37 C6,47 25,47 25,47 C25,47 44,47 44,37 " fill="none" style="stroke: #000000; stroke-width: 1.5;"/><text fill="#000000" font-family="sans-serif" font-size="14" lengthAdjust="spacingAndGlyphs" textLength="18" x="16" y="64.3027">db</text><!--link db to app--><path d="M44.0313,49.5 C53.9039,49.5 63.7766,49.5 73.6493,49.5 " fill="none" id="db-app" style="stroke: #A80036; stroke-width: 1.0;"/><polygon fill="#A80036" points="78.8121,49.5,69.8121,45.5,73.8121,49.5,69.8121,53.5,78.8121,49.5" style="stroke: #A80036; stroke-width: 1.0;"/><!--link app to client--><path d="M145.3047,49.5 C155.1879,49.5 165.0712,49.5 174.9544,49.5 " fill="none" id="app-client" style="stroke: #A80036; stroke-width: 1.0;"/><polygon fill="#A80036" points="180.1227,49.5,171.1227,45.5,175.1227,49.5,171.1227,53.5,180.1227,49.5" style="stroke: #A80036; stroke-width: 1.0;"/><!--
@startuml component
actor client
node app
database db

db -> app
app -> client
@enduml

PlantUML version 1.2018.05(Sat May 05 20:00:17 GMT 2018)
(GPL source distribution)
Java Runtime: Java(TM) SE Runtime Environment
JVM: Java HotSpot(TM) 64-Bit Server VM
Java Version: 1.8.0_161-b12
Operating System: Linux
OS Version: 4.9.87-linuxkit-aufs
Default Encoding: ANSI_X3.4-1968
Language: en
Country: US
--></g></svg>