<?xml version="1.0" encoding="UTF-8" standalone="no"?><svg xmlns="http://www.w3.org/2000/svg" xmlns:xlink="http://www.w3.org/1999/xlink" contentScriptType="application/ecmascript" contentStyleType="text/css" height="308px" preserveAspectRatio="none" style="width:616px;height:308px;" version="1.1" viewBox="0 0 616 308" width="616px" zoomAndPan="magnify"><defs><filter height="300%" id="fqwzxsgm7s9no" width="300%" x="-1" y="-1"><feGaussianBlur result="blurOut" stdDeviation="3.5"/><feColorMatrix in="blurOut" result="blurOut2" type="matrix" values="0 0 0 0 0 0 0 0 0 0 0 0 0 0 0 0 0 0 .4 0"/><feOffset dx="7.0" dy="7.0" in="blurOut2" result="blurOut3"/><feBlend in="SourceGraphic" in2="blurOut3" mode="normal"/></filter></defs><g><rect fill="#FEFECE" filter="url(#fqwzxsgm7s9no)" height="61.4141" rx="21.875" ry="21.875" style="stroke: #A80036; stroke-width: 2.625;" width="157.5" x="17.5" y="131.4141"/><text fill="#000000" font-family="sans-serif" font-size="21" font-weight="bold" lengthAdjust="spacingAndGlyphs" textLength="122.5" x="35" y="170.7139">myThoughts</text><rect fill="#FEFECE" filter="url(#fqwzxsgm7s9no)" height="61.4141" rx="21.875" ry="21.875" style="stroke: #A80036; stroke-width: 2.625;" width="131.25" x="262.5" y="35"/><text fill="#000000" font-family="sans-serif" font-size="21" lengthAdjust="spacingAndGlyphs" textLength="96.25" x="280" y="74.2998">Thought 1</text><text fill="#000000" font-family="sans-serif" font-size="21" lengthAdjust="spacingAndGlyphs" textLength="108.5" x="486.5" y="59.3428">Though 1.1</text><path d="M393.75,65.707 L411.25,65.707 C437.5,65.707 437.5,50.75 463.75,50.75 L481.25,50.75 " fill="none" style="stroke: #A80036; stroke-width: 1.75;"/><text fill="#000000" font-family="sans-serif" font-size="21" lengthAdjust="spacingAndGlyphs" textLength="108.5" x="486.5" y="89.2568">Though 1.2</text><path d="M393.75,65.707 L411.25,65.707 C437.5,65.707 437.5,80.6641 463.75,80.6641 L481.25,80.6641 " fill="none" style="stroke: #A80036; stroke-width: 1.75;"/><path d="M175,162.1211 L192.5,162.1211 C218.75,162.1211 218.75,65.707 245,65.707 L262.5,65.707 " fill="none" style="stroke: #A80036; stroke-width: 1.75;"/><rect fill="#FEFECE" filter="url(#fqwzxsgm7s9no)" height="61.4141" rx="21.875" ry="21.875" style="stroke: #A80036; stroke-width: 2.625;" width="131.25" x="262.5" y="131.4141"/><text fill="#000000" font-family="sans-serif" font-size="21" lengthAdjust="spacingAndGlyphs" textLength="96.25" x="280" y="170.7139">Thought 2</text><path d="M175,162.1211 L192.5,162.1211 C218.75,162.1211 218.75,162.1211 245,162.1211 L262.5,162.1211 " fill="none" style="stroke: #A80036; stroke-width: 1.75;"/><rect fill="#FEFECE" filter="url(#fqwzxsgm7s9no)" height="61.4141" rx="21.875" ry="21.875" style="stroke: #A80036; stroke-width: 2.625;" width="131.25" x="262.5" y="227.8281"/><text fill="#000000" font-family="sans-serif" font-size="21" lengthAdjust="spacingAndGlyphs" textLength="96.25" x="280" y="267.1279">Thought 3</text><path d="M175,162.1211 L192.5,162.1211 C218.75,162.1211 218.75,258.5352 245,258.5352 L262.5,258.5352 " fill="none" style="stroke: #A80036; stroke-width: 1.75;"/><!--
@startmindmap

+ **myThoughts**
++ Thought 1
+++_ Though 1.1
+++_ Though 1.2
++ Thought 2
++ Thought 3


@endmindmap

PlantUML version 1.2019.08(Sat Jul 13 21:25:14 CEST 2019)
(GPL source distribution)
Java Runtime: OpenJDK Runtime Environment
JVM: OpenJDK 64-Bit Server VM
Java Version: 1.8.0_202-release-1483-b58
Operating System: Windows 10
OS Version: 10.0
Default Encoding: Cp1252
Language: de
Country: DE
--></g></svg>