<?xml version="1.0" standalone="no"?>
<!DOCTYPE svg PUBLIC "-//W3C//DTD SVG 20010904//EN"
 "http://www.w3.org/TR/2001/REC-SVG-20010904/DTD/svg10.dtd">
<svg version="1.0" xmlns="http://www.w3.org/2000/svg"
 width="584.000000pt" height="584.000000pt" viewBox="0 0 584.000000 584.000000"
 preserveAspectRatio="xMidYMid meet">
<metadata>
Created by potrace 1.11, written by Peter Selinger 2001-2013
</metadata>
<g transform="translate(0.000000,584.000000) scale(0.100000,-0.100000)"
fill="#000000" stroke="none">
<path d="M4369 5665 c-2 -1 -31 -6 -64 -9 -60 -7 -148 -21 -195 -30 -14 -3
-38 -8 -55 -12 -301 -60 -633 -237 -869 -463 -89 -85 -226 -245 -226 -264 0
-7 -19 17 -41 53 -191 300 -463 499 -849 618 -58 18 -202 50 -248 56 -24 3
-46 7 -50 10 -4 2 -38 7 -77 10 -38 3 -97 10 -130 13 -33 4 -368 8 -745 8
l-685 0 0 -1900 0 -1900 625 0 c344 0 670 4 725 8 318 25 577 87 778 186 69
34 117 52 117 45 0 -7 -4 -15 -9 -19 -5 -3 -13 -20 -17 -37 -3 -18 -10 -39
-15 -48 -8 -14 -159 -394 -265 -670 -25 -63 -49 -124 -54 -135 -5 -11 -43
-105 -84 -210 -41 -104 -137 -351 -215 -548 -78 -197 -141 -361 -141 -363 0
-2 83 -4 184 -4 l185 0 19 53 c11 28 65 169 120 312 54 143 105 277 113 298 7
20 20 37 29 38 8 0 296 1 640 1 522 1 626 -2 632 -13 5 -8 54 -135 109 -284
55 -148 106 -283 113 -300 8 -16 19 -47 26 -67 l12 -38 228 0 c254 0 235 -6
205 65 -7 17 -36 91 -65 165 -29 74 -58 149 -65 165 -7 17 -58 145 -113 285
-55 140 -146 372 -203 515 -56 143 -140 357 -187 475 -46 118 -87 221 -90 229
-4 11 5 9 29 -6 227 -140 585 -246 904 -268 78 -5 326 -5 390 0 273 22 529 74
805 164 l115 37 3 242 2 242 -97 -36 c-93 -33 -309 -99 -356 -108 -12 -2 -53
-11 -92 -20 -447 -99 -889 -45 -1228 151 -199 115 -396 308 -514 503 -100 167
-175 383 -198 576 -3 27 -8 60 -11 73 -7 32 -6 302 1 376 44 447 221 803 530
1066 108 91 344 214 448 233 15 2 36 8 48 11 70 22 208 34 369 30 186 -4 198
-5 360 -36 200 -39 426 -112 633 -203 l57 -26 0 269 c0 248 -1 270 -17 275
-102 30 -382 97 -458 110 -36 6 -223 34 -280 42 -44 6 -541 15 -546 9z m-2909
-458 c14 -3 59 -11 100 -17 582 -90 873 -389 969 -1000 33 -205 36 -684 6
-840 -3 -13 -7 -40 -10 -60 -8 -57 -12 -74 -35 -157 -88 -323 -256 -541 -512
-664 -35 -16 -71 -34 -81 -40 -19 -10 -192 -66 -231 -73 -95 -20 -136 -27
-166 -31 -19 -3 -53 -7 -75 -10 -98 -14 -136 -16 -412 -22 l-292 -6 0 1468 0
1467 357 -5 c196 -3 368 -8 382 -10z m1458 -2939 c30 -79 62 -165 73 -193 10
-27 99 -259 197 -515 99 -256 177 -467 175 -470 -2 -2 -231 -4 -508 -5 -500 0
-505 0 -499 20 6 19 178 475 309 820 32 83 65 170 75 195 85 226 114 299 118
295 3 -3 30 -69 60 -147z"/>
</g>
</svg>
